<?xml version="1.0" encoding="UTF-8" standalone="no"?>
<svg xmlns="http://www.w3.org/2000/svg" width="160" height="480">
  <path fill="#e00000" d="M24.55937971.01077496h110.99945973c19.07129706-.53330934 27.80927913 18.83875625 23.25424605 34.07677951-9.68741255 73.43051086-19.3748355 146.8610347-29.06224805 220.29155855-2.14640362 22.85483584-26.89486552 26.71566601-46.29405153 25.38859246-16.75468962-.4549895-36.66015807 3.92900515-47.7256949-12.10597478-8.19826452-15.7217468-7.18047572-33.62574235-10.28085733-50.55461192C17.05064042 153.43830795 8.65104715 89.76950711.25145388 26.10069928-1.92279673 12.73862307 10.29611128-.37605061 24.55937971.01077496ZM50.15009863 360.0828225c21.90038902.34526197 43.89014649-.72681999 65.72873309.60543015 16.82411979 2.86849554 25.93193821 20.48484107 23.81883443 36.4179083-.33405983 19.56742697.71055615 39.2222762-.60432966 58.7280339-2.86329715 16.85464859-20.44773553 25.97900254-36.35193683 23.86206064-19.53197953-.33466897-39.15122545.71183988-58.6216523-.60542016-16.82410939-2.86849554-25.93193822-20.48485107-23.81883444-36.4179183.33405984-19.56741697-.71054574-39.2222662.60432966-58.7280239 2.55022662-13.62338263 15.40699307-24.11398426 29.24485605-23.86207063z"/>
</svg>